<svg xmlns="http://www.w3.org/2000/svg" viewBox="0 0 1600 900" fill="none">
  <rect width="1600" height="900" fill="#090A0D"/>
  <rect x="54" y="48" width="1492" height="804" rx="28" fill="#101018" stroke="#302B48" stroke-width="2"/>
  <g opacity=".28"><path d="M54 738H1546M54 655H1546M54 572H1546M54 489H1546" stroke="#6A6284"/><path d="M168 48V852M334 48V852M500 48V852M666 48V852M832 48V852M998 48V852M1164 48V852M1330 48V852M1496 48V852" stroke="#6A6284"/></g>
  <g transform="translate(260 163)" stroke-linecap="round" stroke-linejoin="round"><circle cx="274" cy="361" r="170" stroke="#8B7CFF" stroke-width="26"/><circle cx="700" cy="361" r="170" stroke="#8B7CFF" stroke-width="26"/><circle cx="274" cy="361" r="38" fill="#221D42" stroke="#C7BDFE" stroke-width="9"/><circle cx="700" cy="361" r="38" fill="#221D42" stroke="#C7BDFE" stroke-width="9"/><path d="M274 361L417 118L541 361H274L454 361L330 173H526L700 361" stroke="#D7D0FF" stroke-width="19"/><path d="M417 118L514 118L554 70H647" stroke="#D7D0FF" stroke-width="19"/><path d="M491 118L447 62" stroke="#D7D0FF" stroke-width="19"/><path d="M650 70L695 98" stroke="#D7D0FF" stroke-width="19"/><path d="M352 198L450 198" stroke="#8B7CFF" stroke-width="14"/></g>
  <g transform="translate(1090 174)"><rect width="292" height="437" rx="22" fill="#191724" stroke="#5A527B" stroke-width="2"/><rect x="29" y="30" width="116" height="11" rx="5.5" fill="#9C90D8"/><path d="M32 104C63 73 87 143 119 102C155 56 169 132 202 91C225 62 246 84 260 65" stroke="#C5BCFF" stroke-width="7" stroke-linecap="round"/><path d="M32 132H260" stroke="#423B5B" stroke-width="2"/><circle cx="79" cy="230" r="49" stroke="#8B7CFF" stroke-width="16"/><path d="M79 181A49 49 0 0 1 123 208L79 230Z" fill="#D8D1FF"/><rect x="151" y="192" width="88" height="12" rx="6" fill="#766D9B"/><rect x="151" y="222" width="63" height="9" rx="4.5" fill="#413A58"/><rect x="31" y="331" width="229" height="75" rx="12" fill="#242036"/><path d="M55 368H154" stroke="#B7ABF7" stroke-width="9" stroke-linecap="round"/><circle cx="218" cy="368" r="15" fill="#8B7CFF"/></g>
  <g filter="url(#glow)"><path d="M143 742C350 692 540 807 723 730C910 651 1129 735 1442 681" stroke="#8B7CFF" stroke-width="9" stroke-linecap="round"/></g>
  <defs><filter id="glow" x="115" y="650" width="1355" height="188" filterUnits="userSpaceOnUse"><feGaussianBlur stdDeviation="14" result="b"/><feMerge><feMergeNode in="b"/><feMergeNode in="SourceGraphic"/></feMerge></filter></defs>
</svg>
